<?xml version="1.0" encoding="UTF-8"?>
<svg width="180px" height="60px" viewBox="0 0 180 60" version="1.1" xmlns="http://www.w3.org/2000/svg" xmlns:xlink="http://www.w3.org/1999/xlink">
    <!-- Generator: Sketch 53.2 (72643) - https://sketchapp.com -->
    <title>Group 2</title>
    <desc>Created with Sketch.</desc>
    <defs>
        <path d="M4,0 L56,0 C58.209139,-4.05812251e-16 60,1.790861 60,4 L60,56 C60,58.209139 58.209139,60 56,60 L4,60 C1.790861,60 2.705415e-16,58.209139 0,56 L0,4 C-2.705415e-16,1.790861 1.790861,4.05812251e-16 4,0 Z" id="path-1"></path>
    </defs>
    <g id="Relaunch-Campaign" stroke="none" stroke-width="1" fill="none" fill-rule="evenodd">
        <g id="1" transform="translate(-50.000000, -500.000000)">
            <g id="Group-2" transform="translate(50.000000, 500.000000)">
                <g id="Miro_Icon_App_rounded">
                    <g id="Rectangle" fill="#FF6575" fill-rule="nonzero">
                        <path d="M4,0 L56,0 C58.209139,-4.05812251e-16 60,1.790861 60,4 L60,56 C60,58.209139 58.209139,60 56,60 L4,60 C1.790861,60 2.705415e-16,58.209139 0,56 L0,4 C-2.705415e-16,1.790861 1.790861,4.05812251e-16 4,0 Z" id="path-1"></path>
                    </g>
                    <g id="Miro_Icon_App_square-Clipped">
                        <mask id="mask-2" fill="white">
                            <use xlink:href="#path-1"></use>
                        </mask>
                        <g id="path-1"></g>
                        <g id="Miro_Icon_App_square" mask="url(#mask-2)" fill-rule="nonzero">
                            <g id="Group">
                                <polygon id="Rectangle" fill="#FFD02F" points="0 0 60 0 60 60 0 60"></polygon>
                                <polygon id="Fill-4" fill="#050038" points="40.8851434 8 34.4800849 8 40.166052 16.8142608 28.1450064 8 21.7399479 8 27.4257258 19.5487754 15.4048694 8 9 8 14.5925343 22.9072465 9 52 15.4048694 52 27.4257258 20.805956 21.7399479 52 28.1450064 52 40.166052 18.0714415 34.4800849 52 40.8851434 52 52.9992435 14.7315056"></polygon>
                            </g>
                        </g>
                    </g>
                </g>
                <g id="logo" transform="translate(80.000000, 8.000000)" fill="#FFFFFF" fill-rule="nonzero">
                    <path d="M34.1433535,34.967078 L28.631376,33.8545393 L28.631376,19.7587621 C28.631376,17.3476959 26.8569582,15.6323907 24.241487,15.6323907 C21.6253319,15.6323907 19.8509141,17.3476959 19.8509141,19.7587621 L19.8509141,34.967078 L14.3396204,33.8545393 L14.3396204,19.7587621 C14.3396204,17.3476959 12.5645189,15.6323907 9.94904759,15.6323907 C7.28639527,15.6323907 5.51129372,17.3476959 5.51129372,19.7587621 L5.51129372,34.967078 L0,33.8545393 L0,11.737487 L5.51129372,10.6711061 L5.51129372,13.1751667 C7.05254137,11.3200305 9.38834525,10.1613339 12.0503138,10.1613339 C13.9190937,10.1613339 16.2077165,10.8564161 18.1223099,12.6647157 C19.9910897,10.8564161 22.0458587,10.2074917 24.6613299,10.2074917 C28.5383815,10.2074917 34.1433535,12.8038679 34.1433535,19.9909087 L34.1433535,34.967078 Z M87.3321244,35.1232 C94.232182,35.1232 99.8816,29.5150274 99.8816,22.6191881 C99.8816,15.7695065 94.232182,10.1613339 87.3321244,10.1613339 C80.3855694,10.1613339 74.7361515,15.7695065 74.7361515,22.6191881 C74.7361515,29.5150274 80.3855694,35.1232 87.3321244,35.1232 L87.3321244,35.1232 Z M87.3321244,29.9284113 C83.3032729,29.9284113 80.0149588,26.6647834 80.0149588,22.6191881 C80.0149588,18.6197506 83.3032729,15.4016017 87.3321244,15.4016017 C91.3609758,15.4016017 94.6021088,18.6197506 94.6021088,22.6191881 C94.6021088,26.6647834 91.3609758,29.9284113 87.3321244,29.9284113 L87.3321244,29.9284113 Z M67.4066778,10.6168028 L70.5828515,10.1070307 L70.5828515,15.8088764 L67.4066778,16.3865277 C64.6776985,16.9017301 62.9231105,18.2952884 62.9231105,21.3803942 L62.9231105,34.9127747 L57.411133,33.800236 L57.411133,20.5529478 C57.411133,13.951025 61.3476737,11.9872822 67.4066778,10.6168028 L67.4066778,10.6168028 Z M43.3675908,1.00851396 C42.013016,2.30704145 42.013016,4.53279766 43.3675908,5.87680415 C44.7221656,7.22148944 46.9642911,7.22148944 48.3188659,5.87680415 C49.6727569,4.53279766 49.6727569,2.30704145 48.3188659,1.00851396 C46.9642911,-0.336171321 44.7221656,-0.336171321 43.3675908,1.00851396 L43.3675908,1.00851396 Z M43.0407423,33.8545393 L48.552036,35.1232 L48.552036,10.4674688 L43.0407423,11.5800075 L43.0407423,33.8545393 Z" id="Fill-1"></path>
                </g>
            </g>
        </g>
    </g>
</svg>